<svg height="256" viewBox="0 0 256 256" width="256" xmlns="http://www.w3.org/2000/svg"><g fill="#085a62" stroke-miterlimit="10" stroke-width="0" transform="matrix(2.8008 0 0 2.8008 1.964 1.964)"><path d="m87 77.103h-32.12c-1.657 0-3-1.343-3-3s1.343-3 3-3h32.12c1.657 0 3 1.343 3 3s-1.343 3-3 3z"/><path d="m54.114 18.898h-51.114c-1.657 0-3-1.343-3-3s1.343-3 3-3h51.114c1.657 0 3 1.343 3 3s-1.343 3-3 3z"/><path d="m87 48h-55.903c-1.657 0-3-1.343-3-3s1.343-3 3-3h55.903c1.657 0 3 1.343 3 3s-1.343 3-3 3z"/><path d="m35.885 77.103h-32.885c-1.657 0-3-1.343-3-3s1.343-3 3-3h32.885c1.657 0 3 1.343 3 3s-1.343 3-3 3z"/><path d="m12.868 48h-9.868c-1.657 0-3-1.343-3-3s1.343-3 3-3h9.868c1.657 0 3 1.343 3 3s-1.344 3-3 3z"/><path d="m87 18.898h-14.479c-1.657 0-3-1.343-3-3s1.343-3 3-3h14.479c1.657 0 3 1.343 3 3s-1.343 3-3 3z"/><path d="m54.114 86.217h-18.229c-1.657 0-3-1.343-3-3v-18.23c0-1.657 1.343-3 3-3h18.229c1.657 0 3 1.343 3 3v18.229c0 1.658-1.343 3.001-3 3.001zm-15.229-6h12.229v-12.23h-12.229z"/><path d="m31.097 57.114h-18.229c-1.657 0-3-1.343-3-3v-18.229c0-1.657 1.343-3 3-3h18.229c1.657 0 3 1.343 3 3v18.229c0 1.657-1.343 3-3 3zm-15.229-6h12.229v-12.229h-12.229z"/><path d="m72.344 28.013h-18.23c-1.657 0-3-1.343-3-3v-18.23c0-1.657 1.343-3 3-3h18.229c1.657 0 3 1.343 3 3v18.229c.001 1.657-1.342 3.001-2.999 3.001zm-15.23-6h12.229v-12.23h-12.229z"/></g></svg>