<svg height="256" viewBox="0 0 256 256" width="256" xmlns="http://www.w3.org/2000/svg"><path fill="#1490a6" d="m89.121 84.879-25.247-25.247c5.55-6.535 8.583-14.734 8.583-23.403 0-9.677-3.769-18.775-10.611-25.617-6.843-6.843-15.941-10.612-25.617-10.612s-18.775 3.769-25.618 10.611c-6.842 6.843-10.611 15.941-10.611 25.618s3.769 18.774 10.611 25.617 15.94 10.611 25.617 10.611c8.669 0 16.868-3.033 23.403-8.583l25.247 25.247c.587.586 1.354.879 2.122.879s1.535-.293 2.121-.879c1.172-1.171 1.172-3.071 0-4.242zm-74.267-27.275c-11.786-11.786-11.786-30.964 0-42.75 5.893-5.893 13.634-8.839 21.375-8.839s15.481 2.947 21.375 8.839c11.786 11.786 11.786 30.964 0 42.75-11.788 11.785-30.964 11.785-42.75 0z" transform="matrix(2.8008 0 0 2.8008 1.964 1.964)"/></svg>